<svg width="250" height="45" viewBox="0 0 250 45" fill="none" xmlns="http://www.w3.org/2000/svg">
<path d="M55.734 13.6381L53.8482 15.7689V20.2876H49.0845V2.72694H53.8482V9.49894L59.616 2.72694H65.1389L58.869 10.001L65.641 20.2876H60.1181L55.734 13.6381ZM70.9381 7.93146C69.9992 8.87848 69.5298 10.0704 69.5298 11.5073C69.5298 12.9441 69.9992 14.1401 70.9381 15.0953C71.8769 16.0505 73.0403 16.5281 74.4282 16.5281C75.8161 16.5281 76.9753 16.0505 77.906 15.0953C78.8449 14.1401 79.3143 12.9441 79.3143 11.5073C79.3143 10.0704 78.8449 8.87848 77.906 7.93146C76.9753 6.97628 75.8161 6.49869 74.4282 6.49869C73.0403 6.49869 71.8769 6.97628 70.9381 7.93146ZM81.3471 4.96795C83.2493 6.78851 84.2004 8.96828 84.2004 11.5073C84.2004 14.0463 83.2493 16.2301 81.3471 18.0588C79.4531 19.8794 77.1427 20.7897 74.4159 20.7897C71.6973 20.7897 69.3869 19.8794 67.4847 18.0588C65.5907 16.2301 64.6437 14.0463 64.6437 11.5073C64.6437 8.96828 65.5907 6.78851 67.4847 4.96795C69.3869 3.13922 71.6973 2.22486 74.4159 2.22486C77.1427 2.22486 79.4531 3.13922 81.3471 4.96795ZM86.4728 2.72694H94.3714C96.2981 2.72694 97.8656 3.31066 99.0738 4.47811C100.282 5.63739 100.886 7.10282 100.886 8.8744C100.886 10.646 100.278 12.1155 99.0616 13.2829C97.8533 14.4422 96.2899 15.0218 94.3714 15.0218H91.2364V20.2876H86.4728V2.72694ZM94.1142 7.00077H91.2364V10.7603H94.1142C94.6694 10.7603 95.1429 10.5725 95.5348 10.197C95.9266 9.82141 96.1226 9.38464 96.1226 8.88664C96.1226 8.38048 95.9266 7.93962 95.5348 7.56408C95.1429 7.18854 94.6694 7.00077 94.1142 7.00077ZM118.833 2.72694V20.2876H114.07V7.00077H107.922V20.2876H103.159V2.72694H118.833ZM127.388 7.93146C126.449 8.87848 125.98 10.0704 125.98 11.5073C125.98 12.9441 126.449 14.1401 127.388 15.0953C128.327 16.0505 129.49 16.5281 130.878 16.5281C132.266 16.5281 133.425 16.0505 134.356 15.0953C135.295 14.1401 135.764 12.9441 135.764 11.5073C135.764 10.0704 135.295 8.87848 134.356 7.93146C133.425 6.97628 132.266 6.49869 130.878 6.49869C129.49 6.49869 128.327 6.97628 127.388 7.93146ZM137.797 4.96795C139.699 6.78851 140.65 8.96828 140.65 11.5073C140.65 14.0463 139.699 16.2301 137.797 18.0588C135.903 19.8794 133.592 20.7897 130.866 20.7897C128.147 20.7897 125.837 19.8794 123.935 18.0588C122.041 16.2301 121.093 14.0463 121.093 11.5073C121.093 8.96828 122.041 6.78851 123.935 4.96795C125.837 3.13922 128.147 2.22486 130.866 2.22486C133.592 2.22486 135.903 3.13922 137.797 4.96795ZM142.923 2.72694H150.821C152.748 2.72694 154.315 3.31066 155.524 4.47811C156.732 5.63739 157.336 7.10282 157.336 8.8744C157.336 10.646 156.728 12.1155 155.511 13.2829C154.303 14.4422 152.74 15.0218 150.821 15.0218H147.686V20.2876H142.923V2.72694ZM150.564 7.00077H147.686V10.7603H150.564C151.119 10.7603 151.593 10.5725 151.985 10.197C152.376 9.82141 152.572 9.38464 152.572 8.88664C152.572 8.38048 152.376 7.93962 151.985 7.56408C151.593 7.18854 151.119 7.00077 150.564 7.00077ZM166.993 12.7686L165.364 7.62531L163.735 12.7686H166.993ZM168.242 16.5281H162.474L161.225 20.2876H156.082L162.731 2.72694H167.997L174.646 20.2876H169.503L168.242 16.5281ZM175.902 20.2876V2.72694H180.666V16.026H186.556V2.72694H191.32V16.026H193.328V23.8022H188.565V20.2876H175.902ZM195.209 2.72694H199.972V12.5114L207.491 2.72694H211.631V20.2876H206.867V10.5031L199.323 20.2876H195.209V2.72694ZM228.953 2.72694V20.2876H224.189V14.7647H221.679L218.667 20.2876H213.646L217.283 13.8952C217.201 13.8626 217.091 13.8095 216.952 13.736C216.822 13.6544 216.585 13.4666 216.242 13.1727C215.899 12.8706 215.593 12.5441 215.323 12.193C215.062 11.8338 214.821 11.3481 214.601 10.7358C214.389 10.1153 214.283 9.45404 214.283 8.75194C214.283 7.04567 214.883 5.61698 216.083 4.46586C217.291 3.30658 218.822 2.72694 220.675 2.72694H228.953ZM219.561 7.50285C219.218 7.82941 219.046 8.24577 219.046 8.75194C219.046 9.24994 219.222 9.6663 219.573 10.001C219.924 10.3357 220.373 10.5031 220.92 10.5031H224.189V7.00077H220.92C220.365 7.00077 219.912 7.16813 219.561 7.50285ZM54.2768 29.9315C53.3216 30.8785 52.844 32.0704 52.844 33.5073C52.844 34.9441 53.3216 36.1401 54.2768 37.0953C55.232 38.0505 56.428 38.5281 57.8648 38.5281C58.7547 38.5281 59.5956 38.3403 60.3875 37.9648C61.1794 37.5892 61.7509 37.2096 62.1019 36.8259L62.6285 36.2626L65.3838 39.2751C65.3185 39.3731 65.2206 39.5037 65.0899 39.667C64.9675 39.8221 64.6736 40.1037 64.2082 40.5119C63.751 40.912 63.253 41.2671 62.7142 41.5773C62.1836 41.8876 61.4774 42.1651 60.5957 42.4101C59.7221 42.6631 58.8119 42.7897 57.8648 42.7897C55.1381 42.7897 52.8236 41.8794 50.9214 40.0588C49.0274 38.2301 48.0803 36.0463 48.0803 33.5073C48.0803 30.9683 49.0274 28.7885 50.9214 26.9679C52.8236 25.1392 55.1381 24.2249 57.8648 24.2249C58.8037 24.2249 59.6976 24.3473 60.5467 24.5922C61.3957 24.8372 62.0938 25.1311 62.6407 25.4739C63.1959 25.8168 63.6776 26.1597 64.0858 26.5026C64.5021 26.8455 64.8001 27.1394 64.9797 27.3843L65.2614 27.7394L62.3713 30.7519C62.3223 30.6866 62.257 30.605 62.1754 30.507C62.0938 30.4009 61.906 30.2213 61.6121 29.9682C61.3182 29.707 61.012 29.4784 60.6936 29.2824C60.3752 29.0783 59.9548 28.8987 59.4323 28.7436C58.918 28.5803 58.3955 28.4987 57.8648 28.4987C56.428 28.4987 55.232 28.9763 54.2768 29.9315ZM67.1419 24.7269H71.9055V34.5114L79.4245 24.7269H83.5636V42.2876H78.8V32.5031L71.2565 42.2876H67.1419V24.7269ZM102.76 24.7269V42.2876H97.9962V35.5156H91.6038V42.2876H86.8402V24.7269H91.6038V31.254H97.9962V24.7269H102.76ZM110.788 38.2709H119.813V42.2876H106.024V24.7269H119.568V28.7436H110.788V31.4989H117.56V35.2707H110.788V38.2709ZM122.073 24.7269H129.972C131.898 24.7269 133.466 25.3107 134.674 26.4781C135.882 27.6374 136.487 29.1028 136.487 30.8744C136.487 32.646 135.878 34.1155 134.662 35.2829C133.454 36.4422 131.89 37.0218 129.972 37.0218H126.837V42.2876H122.073V24.7269ZM129.715 29.0008H126.837V32.7603H129.715C130.27 32.7603 130.743 32.5725 131.135 32.197C131.527 31.8214 131.723 31.3846 131.723 30.8866C131.723 30.3805 131.527 29.9396 131.135 29.5641C130.743 29.1885 130.27 29.0008 129.715 29.0008ZM138.759 42.2876V24.7269H151.299V29.0008H143.523V42.2876H138.759ZM152.8 24.7269H157.563V34.5114L165.082 24.7269H169.221V42.2876H164.458V32.5031L156.914 42.2876H152.8V24.7269ZM186.544 24.7269V42.2876H181.78V36.7647H179.27L176.257 42.2876H171.237L174.874 35.8952C174.792 35.8626 174.682 35.8095 174.543 35.736C174.412 35.6544 174.176 35.4666 173.833 35.1727C173.49 34.8706 173.184 34.5441 172.914 34.193C172.653 33.8338 172.412 33.3481 172.192 32.7358C171.98 32.1153 171.873 31.454 171.873 30.7519C171.873 29.0457 172.473 27.617 173.674 26.4659C174.882 25.3066 176.413 24.7269 178.266 24.7269H186.544ZM177.151 29.5029C176.809 29.8294 176.637 30.2458 176.637 30.7519C176.637 31.2499 176.813 31.6663 177.164 32.001C177.515 32.3357 177.964 32.5031 178.511 32.5031H181.78V29.0008H178.511C177.956 29.0008 177.502 29.1681 177.151 29.5029Z" fill="black"/>
<path d="M23.6511 26.7493L19.7146 22.8125L23.6511 18.8758V11.0022L11.8416 22.8125L23.6511 34.6229V26.7493Z" fill="#FF0040"/>
<path d="M-0.000244141 3.10645V42.5175H39.4192V3.10645H-0.000244141V3.10645ZM33.7847 36.8827H5.63419V8.73041H33.7847V36.8827Z" fill="#FF0040"/>
</svg>
