<svg width="379" height="46" viewBox="0 0 379 46" fill="none" xmlns="http://www.w3.org/2000/svg">
<path d="M13.007 22.5647L27.9543 7.54551V15.5222L20.9837 22.4928L27.9543 29.4634V37.4401L13.007 22.5647ZM0 0H45.0574V45.0574H0V0ZM5.60523 39.4522H39.3804V5.6771H5.60523V39.4522V39.4522Z" fill="#ED1C24"/>
<path d="M78.9048 43.7642C83.7915 43.7642 87.8876 42.6863 91.1932 40.6741C91.4088 39.9555 91.5525 38.4464 91.6244 36.0031C91.6963 33.5598 91.4807 32.1226 91.1932 31.6195C87.0252 34.2066 83.0728 35.5001 79.4079 35.5001C75.5992 35.5001 72.5091 34.3503 69.9221 31.9788C67.3351 29.6074 66.1134 26.5173 66.1134 22.5649C66.1134 18.6125 67.3351 15.5224 69.9221 13.2229C72.4373 10.8514 75.5992 9.70163 79.4079 9.70163C83.0728 9.70163 87.0252 10.9951 91.1932 13.5822C91.4807 13.0791 91.6963 11.6419 91.6244 9.19859C91.5525 6.75528 91.4088 5.24618 91.1932 4.52756C87.8157 2.44357 83.7196 1.4375 78.9048 1.4375C72.0061 1.4375 66.4727 3.5215 62.3047 7.54577C58.1367 11.57 56.0527 16.6004 56.0527 22.6368C56.0527 28.6013 58.1367 33.6317 62.3047 37.7278C66.4009 41.6802 72.0061 43.7642 78.9048 43.7642Z" fill="white"/>
<path d="M100.464 2.3716V42.8299C103.051 43.2611 105.71 43.2611 108.225 42.8299L127.053 19.1154V42.8299C130.358 43.4048 133.736 43.4048 137.042 42.8299V2.3716C134.455 1.94043 131.796 1.94043 129.281 2.3716L110.453 26.0861V2.3716C107.147 1.79671 103.77 1.79671 100.464 2.3716Z" fill="white"/>
<path d="M146.599 2.3716V42.8299C149.904 43.4048 153.282 43.4048 156.587 42.8299V26.5172H173.331V42.8299C176.637 43.4048 180.014 43.4048 183.32 42.8299V2.3716C180.014 1.79671 176.637 1.79671 173.331 2.3716V18.2531H156.587V2.3716C153.282 1.79671 149.904 1.79671 146.599 2.3716Z" fill="white"/>
<path d="M221.19 34.4934H202.937V26.5167H219.035C219.538 23.786 219.538 21.0552 219.035 18.2526H202.937V10.6352H221.19C221.693 7.90446 221.693 5.17371 221.19 2.37109H193.021V42.8294H221.19C221.622 40.0268 221.622 37.296 221.19 34.4934Z" fill="white"/>
<path d="M229.527 2.37167V42.83C232.833 43.4048 236.21 43.4048 239.516 42.83V29.4636H245.409C249.936 29.4636 253.601 28.242 256.404 25.7268C259.206 23.2116 260.644 19.906 260.644 15.8817C260.644 11.8574 259.206 8.5518 256.404 6.03663C253.601 3.52146 249.936 2.29981 245.409 2.29981H229.527V2.37167ZM250.511 15.9536C250.511 19.403 248.355 21.2714 245.409 21.2714H239.516V10.6358H245.409C248.355 10.6358 250.511 12.4323 250.511 15.9536Z" fill="white"/>
<path d="M278.034 42.8294V10.6352H294.706C295.209 7.90446 295.209 5.17371 294.706 2.37109H268.045V42.8294C271.351 43.3324 274.728 43.3324 278.034 42.8294Z" fill="white"/>
<path d="M311.88 2.3716C308.575 1.79671 305.197 1.79671 301.892 2.3716V42.8299C304.479 43.2611 307.138 43.2611 309.653 42.8299L328.481 19.1154V42.8299C331.786 43.4048 335.164 43.4048 338.469 42.8299V2.3716C335.882 1.94043 333.223 1.94043 330.708 2.3716L311.88 26.0861V2.3716Z" fill="white"/>
<path d="M350.757 43.1887C352.913 43.1887 354.782 43.045 356.219 42.8294L365.13 29.1037H369.01V42.8294C372.316 43.4043 375.693 43.4043 378.999 42.8294V2.37109H362.614C358.087 2.37109 354.494 3.59275 351.691 6.10792C348.961 8.55122 347.595 11.785 347.595 15.7374C347.595 21.1271 350.542 25.4388 355.285 27.5946L345.439 42.7575C346.877 43.045 348.601 43.1887 350.757 43.1887ZM362.758 10.6352H369.01V20.8396H362.758C359.812 20.8396 357.656 19.0431 357.656 15.7374C357.656 12.4318 359.812 10.6352 362.758 10.6352Z" fill="white"/>
</svg>
