<svg width="380" height="34" viewBox="0 0 380 34" fill="none" xmlns="http://www.w3.org/2000/svg">
<g clip-path="url(#clip0_369:1706)">
<path d="M53.163 32.3605C49.9951 32.3605 47.3701 31.691 45.2879 30.3521C43.2054 29.0132 41.7543 27.1943 40.9214 24.9207L47.4713 21.106C48.5817 23.7586 50.5506 25.0849 53.3775 25.0849C55.7121 25.0849 56.8857 24.4154 56.8857 23.0765C56.8857 22.1923 56.217 21.4723 54.8791 20.9418C54.3113 20.7144 53.0494 20.3229 51.1184 19.7797C48.3798 18.984 46.2091 17.8598 44.6188 16.4198C43.0162 14.9798 42.2212 12.9715 42.2212 10.4073C42.2212 7.64103 43.218 5.39266 45.1996 3.68743C47.1809 1.96959 49.6544 1.12329 52.6201 1.12329C55.1316 1.12329 57.3526 1.70433 59.2963 2.87904C61.2399 4.05376 62.7163 5.74636 63.7514 7.96946L57.3403 11.7336C56.3938 9.51046 54.8415 8.39893 52.6708 8.39893C51.7619 8.39893 51.0678 8.5884 50.6009 8.9547C50.134 9.321 49.8942 9.801 49.8942 10.3694C49.8942 11.0262 50.2475 11.582 50.9416 12.0367C51.636 12.4915 52.9988 13.022 55.0307 13.6157C56.4821 14.0451 57.6557 14.4493 58.5389 14.8156C59.4225 15.1819 60.3943 15.7251 61.4417 16.4198C62.4891 17.1145 63.2844 18.024 63.789 19.1229C64.3066 20.2218 64.559 21.5102 64.559 23.0007C64.559 25.9438 63.5116 28.2427 61.4417 29.8974C59.3342 31.5395 56.583 32.3605 53.163 32.3605Z" fill="#11253D"/>
<path d="M91.5285 1.75488L81.4323 20.2092V31.729H73.7717V20.2976L63.6756 1.75488H72.27L77.5704 12.8452L82.9214 1.75488H91.5285Z" fill="#11253D"/>
<path d="M110.395 1.75488H118.005V31.729H112.099L101.536 16.6598V31.729H93.8753V1.75488H99.8317L110.395 16.824V1.75488Z" fill="#11253D"/>
<path d="M130.411 24.5291H142.009V31.7163H122.763V1.75488H141.794V8.9042H130.411V13.0599H140.721V20.1208H130.411V24.5291Z" fill="#11253D"/>
<path d="M161.255 31.7163L156.029 22.0408H153.291V31.7163H145.631V1.75488H157.607C160.661 1.75488 163.223 2.72749 165.28 4.68534C167.35 6.6432 168.385 9.11894 168.385 12.1125C168.385 13.9062 167.93 15.5609 167.022 17.0514C166.113 18.5545 164.864 19.7419 163.299 20.626L169.458 31.7163H161.255ZM153.304 8.81577V15.5356H157.544C158.491 15.5609 159.26 15.2704 159.853 14.6388C160.447 14.0072 160.75 13.1988 160.75 12.201C160.75 11.2031 160.447 10.3947 159.853 9.76314C159.26 9.13157 158.491 8.81577 157.544 8.81577H153.304Z" fill="#11253D"/>
<path d="M201.463 14.5504V17.5945C201.463 21.9902 200.088 25.5522 197.336 28.2806C194.585 31.009 191.014 32.3731 186.622 32.3731C181.939 32.3731 178.103 30.87 175.099 27.8764C172.096 24.8828 170.581 21.1818 170.581 16.7861C170.581 12.3904 172.083 8.6768 175.074 5.65793C178.065 2.62642 181.776 1.12329 186.193 1.12329C188.982 1.12329 191.544 1.75486 193.866 3.00536C196.188 4.25586 198.005 5.93583 199.318 8.02L192.818 11.7462C192.225 10.7989 191.342 10.0536 190.193 9.4726C189.032 8.90416 187.732 8.61366 186.281 8.61366C183.908 8.61366 181.977 9.38416 180.463 10.9252C178.949 12.4662 178.191 14.4367 178.191 16.8366C178.191 19.1482 178.936 21.106 180.438 22.6976C181.939 24.3017 184.035 25.0975 186.748 25.0975C190.231 25.0975 192.528 23.7839 193.639 21.1565H186.369V14.563H201.463V14.5504Z" fill="#11253D"/>
<path d="M227.94 1.75488L217.844 20.2092V31.729H210.184V20.2976L200.088 1.75488H208.682L213.982 12.8452L219.333 1.75488H227.94Z" fill="#11253D"/>
<path d="M229.013 32.3226C227.751 32.3226 226.691 31.8931 225.82 31.0216C224.949 30.15 224.52 29.1016 224.52 27.8764C224.52 26.6511 224.962 25.6027 225.845 24.7312C226.729 23.8596 227.789 23.4302 229.013 23.4302C230.237 23.4302 231.284 23.8596 232.155 24.7312C233.026 25.6027 233.455 26.6511 233.455 27.8764C233.455 29.1016 233.026 30.15 232.155 31.0216C231.284 31.8931 230.237 32.3226 229.013 32.3226Z" fill="#11253D"/>
<path d="M263.213 27.763C260.209 30.7693 256.537 32.285 252.195 32.285C247.867 32.285 244.194 30.7819 241.178 27.763C238.174 24.7568 236.66 21.0811 236.66 16.7359C236.66 12.3907 238.162 8.72766 241.178 5.70876C244.182 2.70252 247.854 1.18677 252.195 1.18677C256.537 1.18677 260.197 2.68989 263.213 5.70876C266.217 8.71503 267.731 12.3907 267.731 16.7359C267.731 21.0811 266.217 24.7442 263.213 27.763ZM244.649 24.4157C246.693 26.462 249.205 27.4725 252.195 27.4725C255.186 27.4725 257.71 26.4494 259.742 24.4157C261.787 22.3695 262.796 19.8179 262.796 16.7359C262.796 13.6539 261.774 11.0897 259.742 9.05606C257.698 7.00979 255.186 5.99929 252.195 5.99929C249.205 5.99929 246.681 7.02243 244.649 9.05606C242.604 11.1023 241.595 13.6539 241.595 16.7359C241.582 19.8179 242.604 22.3821 244.649 24.4157Z" fill="#11253D"/>
<path d="M290.182 1.75488H295.104V31.729H291.255L277.133 11.3926V31.729H272.211V1.75488H276.06L290.182 22.0913V1.75488Z" fill="#11253D"/>
<path d="M306.009 27.0049H318.2V31.7163H301.087V1.75488H306.009V27.0049Z" fill="#11253D"/>
<path d="M321.834 1.75488H326.756V31.729H321.834V1.75488Z" fill="#11253D"/>
<path d="M350.709 1.75488H355.632V31.729H351.782L337.661 11.3926V31.729H332.739V1.75488H336.588L350.709 22.0913V1.75488Z" fill="#11253D"/>
<path d="M366.535 27.0049H379.8V31.7163H361.626V1.75488H379.597V6.46637H366.548V14.2599H378.524V18.9208H366.548V27.0049H366.535Z" fill="#11253D"/>
<path d="M0.131348 0.375977V32.9142H32.6411V0.375977H0.131348ZM5.16681 27.8743V5.41587H27.6056V27.8743H5.16681Z" fill="#E8003A"/>
<path d="M19.7827 27.068V19.9439L16.4888 16.6472L19.7953 13.3251V6.20105L9.371 16.6472L19.7827 27.068Z" fill="#E8003A"/>
</g>
<defs>
<clipPath id="clip0_369:1706">
<rect width="380" height="33" fill="white" transform="translate(0 0.139404)"/>
</clipPath>
</defs>
</svg>
